<svg width="11" height="11" viewBox="0 0 11 11" fill="none" xmlns="http://www.w3.org/2000/svg">
<g clip-path="url(#clip0_250_5499)">
<path d="M3.90196 7.19221L3.46251 8.92417C3.43587 9.03875 3.37817 9.1313 3.28939 9.20181C3.20061 9.27233 3.09407 9.30758 2.96978 9.30758C2.8011 9.30758 2.6635 9.24148 2.55696 9.10927C2.45043 8.97706 2.41936 8.83162 2.46375 8.67297L2.83662 7.19221H1.38509C1.20753 7.19221 1.06548 7.12381 0.95895 6.98702C0.852416 6.85022 0.821343 6.69827 0.865732 6.53115C0.892366 6.40776 0.954511 6.3108 1.05217 6.24029C1.14982 6.16978 1.2608 6.13452 1.38509 6.13452H3.10295L3.63562 4.01915H2.18409C2.00654 4.01915 1.86449 3.95075 1.75796 3.81396C1.65142 3.67716 1.62035 3.52521 1.66474 3.35809C1.69137 3.23469 1.75352 3.13774 1.85117 3.06723C1.94883 2.99672 2.0598 2.96146 2.18409 2.96146H3.90196L4.34141 1.2295C4.36805 1.11491 4.42575 1.02237 4.51453 0.951853C4.60331 0.881341 4.70984 0.846084 4.83413 0.846084C5.00281 0.846084 5.14042 0.91219 5.24695 1.0444C5.35349 1.17661 5.38456 1.32204 5.34017 1.4807L4.9673 2.96146H7.09799L7.53744 1.2295C7.56407 1.11491 7.62178 1.02237 7.71056 0.951853C7.79934 0.881341 7.90587 0.846084 8.03016 0.846084C8.19884 0.846084 8.33645 0.91219 8.44298 1.0444C8.54952 1.17661 8.58059 1.32204 8.5362 1.4807L8.16333 2.96146H9.61486C9.79242 2.96146 9.93446 3.02968 10.041 3.16612C10.1475 3.30256 10.1786 3.45469 10.1342 3.62251C10.1076 3.74591 10.0454 3.84287 9.94778 3.91338C9.85012 3.98389 9.73915 4.01915 9.61486 4.01915H7.89699L7.36432 6.13452H8.81585C8.99341 6.13452 9.13545 6.20292 9.24199 6.33971C9.34852 6.47651 9.3796 6.62846 9.33521 6.79558C9.30857 6.91897 9.24643 7.01593 9.14877 7.08644C9.05112 7.15695 8.94014 7.19221 8.81585 7.19221H7.09799L6.65853 8.92417C6.6319 9.03875 6.57419 9.1313 6.48541 9.20181C6.39664 9.27233 6.2901 9.30758 6.16581 9.30758C5.99713 9.30758 5.85953 9.24148 5.75299 9.10927C5.64646 8.97706 5.61539 8.83162 5.65977 8.67297L6.03264 7.19221H3.90196ZM4.16829 6.13452H6.29898L6.83165 4.01915H4.70097L4.16829 6.13452Z" fill="#2196F3"/>
</g>
<defs>
<clipPath id="clip0_250_5499">
<rect width="10.4252" height="10.4252" fill="white" transform="scale(1.05513)"/>
</clipPath>
</defs>
</svg>
