<svg width="8" height="10" viewBox="0 0 8 10" fill="none" xmlns="http://www.w3.org/2000/svg">
<path d="M6.75555 3.83534H3.94526V0.393193C3.94526 0.326922 3.91883 0.262605 3.87029 0.210729C3.82175 0.158852 3.75396 0.122475 3.67797 0.10753C3.60197 0.0925841 3.52226 0.0999506 3.45183 0.128429C3.38139 0.156907 3.32439 0.204817 3.29011 0.264347L0.134698 5.74323C0.109139 5.78791 0.0973586 5.83737 0.100462 5.88697C0.103566 5.93657 0.121452 5.98469 0.152442 6.02682C0.183431 6.06894 0.226509 6.10368 0.277633 6.12779C0.328756 6.15189 0.386249 6.16456 0.444718 6.16462H3.25501V9.6076C3.25517 9.67361 3.28155 9.73764 3.32986 9.78933C3.37818 9.84102 3.44561 9.87735 3.52125 9.89244C3.54713 9.89745 3.57359 9.89998 3.60013 9.89998C3.6647 9.89995 3.72797 9.88453 3.78274 9.85547C3.83751 9.82641 3.88158 9.78489 3.90995 9.73561L7.06537 4.25673C7.09087 4.21206 7.1026 4.16262 7.09948 4.11305C7.09636 4.06348 7.07849 4.01539 7.04753 3.97329C7.01657 3.93119 6.97355 3.89644 6.92248 3.87232C6.87142 3.84819 6.81398 3.83547 6.75555 3.83534ZM3.94526 8.34059V5.87124C3.9452 5.7935 3.90882 5.71897 3.8441 5.66401C3.77938 5.60906 3.69163 5.57819 3.60013 5.57819H0.996915L3.25481 1.65954V4.12872C3.25484 4.16722 3.26379 4.20535 3.28116 4.24091C3.29853 4.27648 3.32397 4.30879 3.35604 4.336C3.3881 4.36321 3.42616 4.38479 3.46804 4.39951C3.50993 4.41422 3.55481 4.42179 3.60013 4.42176H6.20335L3.94526 8.34059Z" fill="#2196F3" stroke="#2196F3" stroke-width="0.2"/>
</svg>
