<svg width="10" height="10" viewBox="0 0 10 10" fill="none" xmlns="http://www.w3.org/2000/svg">
<g clip-path="url(#clip0_250_5523)">
<path d="M3.33334 5.8334C3.21528 5.8334 3.11625 5.7934 3.03625 5.7134C2.95625 5.6334 2.91639 5.53451 2.91667 5.41674C2.91667 5.29868 2.95667 5.19965 3.03667 5.11965C3.11667 5.03965 3.21556 4.99979 3.33334 5.00007C3.45139 5.00007 3.55042 5.04007 3.63042 5.12007C3.71042 5.20007 3.75028 5.29896 3.75 5.41674C3.75 5.53479 3.71 5.63382 3.63 5.71382C3.55 5.79382 3.45111 5.83368 3.33334 5.8334ZM5 5.8334C4.88195 5.8334 4.78292 5.7934 4.70292 5.7134C4.62292 5.6334 4.58306 5.53451 4.58334 5.41674C4.58334 5.29868 4.62334 5.19965 4.70334 5.11965C4.78334 5.03965 4.88223 4.99979 5 5.00007C5.11806 5.00007 5.21709 5.04007 5.29709 5.12007C5.37709 5.20007 5.41695 5.29896 5.41667 5.41674C5.41667 5.53479 5.37667 5.63382 5.29667 5.71382C5.21667 5.79382 5.11778 5.83368 5 5.8334ZM6.66667 5.8334C6.54862 5.8334 6.44959 5.7934 6.36959 5.7134C6.28959 5.6334 6.24973 5.53451 6.25001 5.41674C6.25001 5.29868 6.29001 5.19965 6.37001 5.11965C6.45001 5.03965 6.54889 4.99979 6.66667 5.00007C6.78473 5.00007 6.88376 5.04007 6.96376 5.12007C7.04376 5.20007 7.08362 5.29896 7.08334 5.41674C7.08334 5.53479 7.04334 5.63382 6.96334 5.71382C6.88334 5.79382 6.78445 5.83368 6.66667 5.8334ZM2.08333 9.16674C1.85417 9.16674 1.65792 9.08507 1.49458 8.92174C1.33125 8.75841 1.24972 8.56229 1.25 8.33341V2.50007C1.25 2.2709 1.33167 2.07465 1.495 1.91131C1.65833 1.74798 1.85445 1.66645 2.08333 1.66673H2.5V1.23965C2.5 1.12159 2.54 1.02437 2.62 0.94798C2.7 0.871591 2.79889 0.833397 2.91667 0.833397C3.03472 0.833397 3.13375 0.873397 3.21375 0.953397C3.29375 1.0334 3.33361 1.13229 3.33334 1.25006V1.66673H6.66667V1.23965C6.66667 1.12159 6.70667 1.02437 6.78667 0.94798C6.86667 0.871591 6.96556 0.833397 7.08334 0.833397C7.2014 0.833397 7.30042 0.873397 7.38042 0.953397C7.46042 1.0334 7.50028 1.13229 7.50001 1.25006V1.66673H7.91667C8.14584 1.66673 8.34209 1.7484 8.50543 1.91173C8.66876 2.07506 8.75029 2.27118 8.75001 2.50007V8.33341C8.75001 8.56257 8.66834 8.75882 8.50501 8.92216C8.34168 9.08549 8.14556 9.16702 7.91667 9.16674H2.08333ZM2.08333 8.33341H7.91667V4.16673H2.08333V8.33341ZM2.08333 3.3334H7.91667V2.50007H2.08333V3.3334Z" fill="#2196F3"/>
</g>
<defs>
<clipPath id="clip0_250_5523">
<rect width="9.6233" height="9.6233" fill="white" transform="scale(1.03915)"/>
</clipPath>
</defs>
</svg>
