<svg width="11" height="11" viewBox="0 0 11 11" fill="none" xmlns="http://www.w3.org/2000/svg">
<path d="M3.90196 7.19234L3.46251 8.9243C3.43587 9.03888 3.37817 9.13143 3.28939 9.20194C3.20061 9.27245 3.09407 9.30771 2.96978 9.30771C2.8011 9.30771 2.6635 9.24161 2.55696 9.1094C2.45043 8.97718 2.41936 8.83175 2.46375 8.6731L2.83662 7.19234H1.38509C1.20753 7.19234 1.06548 7.12394 0.95895 6.98715C0.852416 6.85035 0.821343 6.6984 0.865732 6.53128C0.892366 6.40789 0.954511 6.31093 1.05217 6.24042C1.14982 6.16991 1.2608 6.13465 1.38509 6.13465H3.10295L3.63562 4.01928H2.18409C2.00654 4.01928 1.86449 3.95088 1.75796 3.81408C1.65142 3.67729 1.62035 3.52534 1.66474 3.35822C1.69137 3.23482 1.75352 3.13787 1.85117 3.06736C1.94883 2.99684 2.0598 2.96159 2.18409 2.96159H3.90196L4.34141 1.22962C4.36805 1.11504 4.42575 1.02249 4.51453 0.951982C4.60331 0.881469 4.70984 0.846213 4.83413 0.846213C5.00281 0.846213 5.14042 0.912319 5.24695 1.04453C5.35349 1.17674 5.38456 1.32217 5.34017 1.48083L4.9673 2.96159H7.09799L7.53744 1.22962C7.56407 1.11504 7.62178 1.02249 7.71056 0.951982C7.79934 0.881469 7.90587 0.846213 8.03016 0.846213C8.19884 0.846213 8.33645 0.912319 8.44298 1.04453C8.54952 1.17674 8.58059 1.32217 8.5362 1.48083L8.16333 2.96159H9.61486C9.79242 2.96159 9.93446 3.02981 10.041 3.16625C10.1475 3.30269 10.1786 3.45482 10.1342 3.62264C10.1076 3.74604 10.0454 3.84299 9.94778 3.91351C9.85012 3.98402 9.73915 4.01928 9.61486 4.01928H7.89699L7.36432 6.13465H8.81585C8.99341 6.13465 9.13545 6.20305 9.24199 6.33984C9.34852 6.47663 9.3796 6.62859 9.33521 6.7957C9.30857 6.9191 9.24643 7.01606 9.14877 7.08657C9.05112 7.15708 8.94014 7.19234 8.81585 7.19234H7.09799L6.65853 8.9243C6.6319 9.03888 6.57419 9.13143 6.48541 9.20194C6.39664 9.27245 6.2901 9.30771 6.16581 9.30771C5.99713 9.30771 5.85953 9.24161 5.75299 9.1094C5.64646 8.97718 5.61539 8.83175 5.65977 8.6731L6.03264 7.19234H3.90196ZM4.16829 6.13465H6.29898L6.83165 4.01928H4.70097L4.16829 6.13465Z" fill="#2196F3"/>
</svg>
